<svg width="735" height="558" viewBox="0 0 735 558" fill="none" xmlns="http://www.w3.org/2000/svg">
<path d="M396.403 88.1706C344.705 131.328 350.437 291.361 432.334 329.763C602.864 409.724 785.981 191.289 720.403 88.1706C654.824 -14.9481 468.154 28.2722 396.403 88.1706Z" fill="#3DA9FC" fill-opacity="0.6"/>
<path d="M8.56629 74.3628C-44.1738 207.76 162.242 315.812 202.043 342L305.043 63.2355C230.82 19.0101 61.3064 -59.0348 8.56629 74.3628Z" fill="#FCA158" fill-opacity="0.8"/>
<path d="M90.4066 555.886C-26.3791 554.235 17.4262 448.555 53.8652 371.477C66.5687 344.607 97.0195 330.145 125.786 337.621L310.912 385.738C449.371 560.961 447.371 560.933 90.4066 555.886Z" fill="#EAC708" fill-opacity="0.7"/>
<path d="M559.751 557.095C243.321 557.095 241.043 561.4 241.043 551.231L437.358 351.754H475.543L651.05 338.438C682.805 336.029 709.739 360.355 703.59 391.602C689.612 462.637 647.28 557.095 559.751 557.095Z" fill="#C3C267"/>
</svg>
