<svg width="1504" height="628" viewBox="0 0 1504 628" fill="none" xmlns="http://www.w3.org/2000/svg">
<path d="M148.978 200.001C163.27 183.783 168.257 161.693 162.316 140.91C156.376 120.127 140.467 104.011 119.763 97.7979L69.8722 82.8225C61.5956 80.3376 52.9216 80.5789 44.7943 83.5172C36.6651 86.456 29.8457 91.8182 25.0675 99.0243C20.2962 106.233 18.0199 114.606 18.484 123.239C18.948 131.872 22.1137 139.953 27.6345 146.607L28.0065 147.052C41.7308 163.845 47.9102 185.751 44.9702 207.253C44.2126 212.8 44.6095 218.334 46.1153 223.601C46.934 226.466 48.0828 229.254 49.5492 231.922C53.716 239.497 60.0738 245.402 67.9365 249.001C75.7962 252.597 84.4218 253.546 92.8785 251.746C101.335 249.946 108.824 245.567 114.541 239.082L148.978 200.001Z" fill="white" fill-opacity="0.03"/>
<path d="M114.172 78.0341C119.559 85.192 127.785 89.4484 137.335 90.0183C146.422 90.5619 155.677 87.6593 163.395 81.8427C171.107 76.0259 176.445 67.9293 178.428 59.0431C180.51 49.7091 178.688 40.6291 173.299 33.4862C162.474 19.1112 140.398 17.4047 124.08 29.687C111.097 39.4832 105.637 55.2364 109.429 68.5013C110.397 71.8884 111.969 75.1132 114.172 78.0341Z" fill="white" fill-opacity="0.03"/>
<path d="M162.199 121.036C167.97 141.226 191.379 152.302 214.381 145.727C237.389 139.15 251.411 117.374 245.639 97.1849C239.869 76.9975 216.457 65.9241 193.449 72.5009C170.447 79.076 156.428 100.849 162.199 121.036Z" fill="white" fill-opacity="0.03"/>
<path d="M170.026 187.201L170.026 187.203C169.883 190.603 170.296 193.912 171.198 197.067C175.407 211.791 190.225 223.076 208.26 223.844C218.641 224.287 228.606 221.214 236.317 215.192C244.39 208.889 249.059 200.151 249.466 190.584C249.872 181.015 245.959 171.911 238.451 164.946C231.278 158.293 221.61 154.387 211.23 153.948C189.331 153.018 170.847 167.935 170.026 187.201Z" fill="white" fill-opacity="0.03"/>
<path d="M196.933 262.914L196.937 262.906C203.242 246.044 192.832 226.495 173.725 219.328C154.614 212.174 133.925 220.061 127.606 236.905C125.299 243.049 125.216 249.553 126.969 255.684C130.024 266.37 138.656 275.929 150.811 280.494C169.921 287.646 190.611 279.761 196.933 262.914Z" fill="white" fill-opacity="0.03"/>
<path d="M1368.84 425.57C1347.28 425.088 1327.23 435.477 1315.19 453.364C1303.15 471.25 1301.08 493.743 1309.64 513.53L1330.28 561.214C1333.7 569.125 1339.46 575.587 1346.92 579.899C1354.39 584.212 1362.86 585.969 1371.43 584.984C1379.99 583.992 1387.84 580.348 1394.13 574.447C1400.42 568.545 1404.55 560.938 1406.08 552.45L1406.18 551.88C1410.17 530.62 1422.91 511.83 1441.2 500.256C1445.92 497.269 1449.89 493.411 1452.94 488.877C1454.6 486.412 1455.99 483.744 1457.08 480.911C1460.18 472.865 1460.6 464.22 1458.3 455.909C1455.99 447.602 1451.17 440.412 1444.36 435.117C1437.56 429.823 1429.4 426.923 1420.78 426.729L1368.84 425.57Z" fill="white" fill-opacity="0.03"/>
<path d="M1298.16 530.491C1300.16 521.782 1298.12 512.772 1292.42 505.12C1286.99 497.838 1278.83 492.643 1269.43 490.493C1260.04 488.347 1250.43 489.477 1242.38 493.674C1233.92 498.084 1228.17 505.308 1226.18 514.009C1222.17 531.505 1235.05 549.443 1254.91 553.999C1270.72 557.609 1286.25 551.651 1293.93 540.235C1295.89 537.32 1297.34 534.049 1298.16 530.491Z" fill="white" fill-opacity="0.03"/>
<path d="M1300.1 466.22C1311.8 448.844 1305.2 423.869 1285.41 410.546C1265.61 397.22 1239.98 400.515 1228.29 417.891C1216.6 435.265 1223.19 460.241 1243 473.567C1262.79 486.89 1288.41 483.594 1300.1 466.22Z" fill="white" fill-opacity="0.03"/>
<path d="M1345.55 417.734L1345.55 417.732C1348.24 415.656 1350.5 413.215 1352.32 410.499C1360.85 397.828 1359.94 379.271 1348.94 365.02C1342.6 356.815 1333.86 351.187 1324.31 349.175C1314.31 347.066 1304.64 349.119 1297.08 354.956C1289.52 360.795 1285.09 369.63 1284.6 379.833C1284.14 389.58 1287.37 399.466 1293.7 407.667C1307.07 424.971 1330.32 429.487 1345.55 417.734Z" fill="white" fill-opacity="0.03"/>
<path d="M1386.02 348.556L1386.01 348.557C1369.1 354.583 1360.87 375.086 1367.68 394.268C1374.5 413.444 1393.82 424.16 1410.73 418.157C1416.9 415.969 1421.91 411.853 1425.46 406.576C1431.65 397.379 1433.4 384.651 1429.07 372.445C1422.24 353.27 1402.93 342.553 1386.02 348.556Z" fill="white" fill-opacity="0.03"/>
</svg>
