<svg width="36" height="32" viewBox="0 0 36 32" fill="none" xmlns="http://www.w3.org/2000/svg">
<path d="M33.5166 4.62369C30.9242 0.179294 25.2197 -1.32195 20.7754 1.27055C19.7009 1.89737 18.7627 2.73304 18.0163 3.7283L17.5868 4.30075L17.1574 3.72845C15.3934 1.38794 12.6351 0.00862993 9.70425 0.00152195H9.48221C6.29688 0.0013754 3.33234 1.62888 1.62247 4.31643C0.56199 5.98095 -0.000932456 7.9138 2.01602e-05 9.88748V11.5824C-0.00826027 16.6271 2.53471 21.3339 6.75868 24.092L7.75922 24.7475L11.8705 27.4408L17.2657 30.9755C17.4616 31.1038 17.7152 31.1031 17.9105 30.9738L28.4759 23.9767C32.6634 21.2109 35.1801 16.5253 35.1735 11.5069V10.7522C35.173 8.59874 34.6013 6.484 33.5166 4.62369ZM14.1313 27.23L14.3472 27.6619L9.63544 24.5751L8.40173 23.7668L8.06597 23.547L11.04 19.086C11.1042 18.9897 11.1384 18.8765 11.1383 18.7607V16.9258C11.1383 16.8875 11.139 16.8485 11.1401 16.8111C11.1735 16.0861 11.4497 15.3933 11.9242 14.8442L12.0187 14.7331L12.3283 15.9715C12.3935 16.2326 12.628 16.4158 12.897 16.4158H14.3007C14.6929 16.4155 15.0592 16.6117 15.2761 16.9384C15.6763 17.5393 16.2949 17.9603 17.0006 18.1122V18.7607C16.9998 19.4079 16.4753 19.9324 15.8281 19.9332C15.5044 19.9332 15.2419 20.1957 15.2419 20.5194V22.6518C15.2425 23.057 15.1224 23.4533 14.897 23.7901L14.1678 24.8841C14.1036 24.9804 14.0694 25.0935 14.0694 25.2092V26.9679C14.0694 27.0589 14.0906 27.1487 14.1313 27.2301V27.23ZM16.4143 29.0163L15.8281 28.6323V28.1403C15.8281 28.0492 15.8069 27.9593 15.766 27.8778L15.7598 27.8652L16.4143 27.2107V29.0163ZM21.1041 27.4525L19.9317 28.2293V24.9161L21.1041 24.0368V27.4525ZM22.1996 20.1123C22.1572 20.9651 21.8368 21.7805 21.2873 22.434L18.9937 24.154C18.8461 24.2647 18.7592 24.4385 18.7592 24.623V29.0055L17.5868 29.7823V25.7954C17.5868 25.4717 17.3244 25.2092 17.0006 25.2092C16.8451 25.2092 16.6959 25.271 16.586 25.3809L15.2419 26.725V25.3867L15.8721 24.441C16.2264 23.9116 16.4151 23.2888 16.4143 22.6518V21.0314C17.4489 20.7628 18.1717 19.8296 18.173 18.7607V17.5883C18.173 17.2645 17.9105 17.0021 17.5868 17.0021C17.0502 17.0025 16.549 16.7344 16.2515 16.2879C16.0097 15.9243 15.671 15.6356 15.2737 15.4544L16.1715 14.5566L16.1521 14.5952L18.1885 15.6138C19.2445 16.1401 20.408 16.4146 21.5878 16.4158H21.842L22.1384 18.6362C22.2038 19.1253 22.2243 19.6194 22.1996 20.1123ZM18.173 10.5536V12.4581C18.1728 12.7011 17.9757 12.8982 17.7327 12.8985H17.0006V11.8521C16.9967 10.4245 17.5642 9.0546 18.5765 8.04798C18.8493 7.77575 19.2188 7.62267 19.6041 7.62245H20.8733C21.2414 7.6215 21.5945 7.76784 21.854 8.02892L23.0345 9.20944C23.1444 9.31935 23.2935 9.38113 23.449 9.38113H24.6215V10.2605C24.621 10.7459 24.2275 11.1393 23.7421 11.1398H22.2766C21.9528 11.1398 21.6904 11.4023 21.6904 11.726V15.2434H21.5878C20.59 15.2422 19.6061 15.0099 18.7132 14.5648L17.7252 14.0709H17.7325C18.6229 14.07 19.3444 13.3484 19.3455 12.4581V10.5536H18.173ZM34.0011 11.5069C34.007 16.132 31.6876 20.4502 27.8284 22.9991L22.2766 26.676V23.0753C22.9354 22.245 23.318 21.2292 23.3706 20.1705C23.3986 19.6063 23.3751 19.0408 23.3003 18.481L22.8628 15.2045V12.3123H23.7421C24.8748 12.3109 25.7926 11.3931 25.7939 10.2605V8.7949C25.7939 8.47116 25.5314 8.20868 25.2077 8.20868H23.6919L22.6831 7.19978C22.2042 6.7182 21.5524 6.44817 20.8733 6.45H19.6041C18.9078 6.45029 18.2401 6.72677 17.7475 7.21891C16.5146 8.445 15.8234 10.1133 15.8281 11.8521V13.2419L13.8266 15.2434H13.3547L12.8795 13.3425C12.8009 13.0285 12.4827 12.8374 12.1686 12.916C12.0499 12.9457 11.9435 13.0117 11.8642 13.1049L11.0308 14.0849C10.3851 14.8359 10.0108 15.7823 9.96827 16.7717C9.96658 16.823 9.9657 16.8748 9.9657 16.9256V18.583L8.3294 21.0378C7.33993 20.2966 6.4482 19.4334 5.67534 18.4684L5.14759 17.8081C4.94527 17.5553 4.57624 17.5144 4.32343 17.7167C4.07062 17.9191 4.02973 18.2881 4.23205 18.5409L4.75966 19.2009C5.60792 20.26 6.58882 21.2057 7.67818 22.0148L7.08814 22.8998C3.37646 20.3285 1.165 16.0977 1.17247 11.5824V9.88748C1.17159 8.13679 1.67091 6.4223 2.61165 4.94589C4.10631 2.59659 6.69772 1.17383 9.48221 1.17397H9.70425C12.2663 1.1802 14.6775 2.38599 16.2195 4.43199L17.1178 5.62928C17.3121 5.88832 17.6795 5.94079 17.9385 5.74653C17.9829 5.71319 18.0224 5.67369 18.0558 5.62928L18.9541 4.43192C21.6526 0.833596 26.7572 0.104185 30.3554 2.80265C31.2254 3.45505 31.9559 4.2751 32.5039 5.21438C33.484 6.89539 34.0006 8.80626 34.0011 10.7522V11.5069Z" fill="#3DA9FC"/>
<path d="M19.9317 8.79486H21.1042V9.96731H19.9317V8.79486Z" fill="#3DA9FC"/>
<path d="M13.4832 17.5883H14.6556V18.7607H13.4832V17.5883Z" fill="#3DA9FC"/>
<path d="M30.8501 17.7168C30.5974 17.5144 30.2285 17.5553 30.0261 17.808C30.026 17.8081 30.026 17.8082 30.026 17.8082L29.4984 18.4681C28.345 19.912 26.9281 21.124 25.3229 22.0395L23.7447 22.9414C23.4633 23.1015 23.3651 23.4594 23.5253 23.7408C23.6854 24.0222 24.0433 24.1205 24.3247 23.9603C24.3253 23.96 24.3259 23.9596 24.3264 23.9593L25.9046 23.0576C27.6381 22.0687 29.1682 20.7598 30.4136 19.2004L30.9412 18.5405C31.1434 18.2878 31.1027 17.9191 30.8501 17.7168Z" fill="#094067"/>
<path d="M32.2424 11.726C31.9187 11.726 31.6562 11.9885 31.6562 12.3122V12.5052C31.6565 13.4792 31.4994 14.4469 31.1911 15.3709L31.1001 15.6442C30.9947 15.9504 31.1574 16.2839 31.4635 16.3893C31.7697 16.4947 32.1032 16.332 32.2086 16.0258C32.2099 16.0222 32.211 16.0186 32.2122 16.015L32.3034 15.7417C32.6515 14.6981 32.8288 13.6052 32.8285 12.5052V12.3122C32.8286 11.9885 32.5662 11.726 32.2424 11.726Z" fill="#094067"/>
<path d="M32.2424 8.79486C31.9187 8.79486 31.6562 9.05734 31.6562 9.38109V9.96731C31.6562 10.2911 31.9187 10.5535 32.2424 10.5535C32.5661 10.5535 32.8286 10.2911 32.8286 9.96731V9.38109C32.8286 9.05734 32.5662 8.79486 32.2424 8.79486Z" fill="#094067"/>
<path d="M3.9824 15.3709C3.67412 14.447 3.51708 13.4793 3.51738 12.5052V12.3122C3.51738 11.9885 3.25489 11.726 2.93115 11.726C2.60741 11.726 2.34493 11.9885 2.34493 12.3122V12.5052C2.34463 13.6052 2.52197 14.6981 2.87011 15.7417L2.96127 16.0149C3.06063 16.323 3.39097 16.4923 3.69911 16.393C4.00724 16.2936 4.17651 15.9632 4.07715 15.6551C4.07598 15.6515 4.07473 15.6478 4.07348 15.6442L3.9824 15.3709Z" fill="#094067"/>
</svg>
