<!DOCTYPE svg PUBLIC "-//W3C//DTD SVG 1.1//EN" "http://www.w3.org/Graphics/SVG/1.1/DTD/svg11.dtd">
<!-- Uploaded to: SVG Repo, www.svgrepo.com, Transformed by: SVG Repo Mixer Tools -->
<svg fill="#fff" height="800px" width="800px" version="1.1" id="Capa_1" xmlns="http://www.w3.org/2000/svg" xmlns:xlink="http://www.w3.org/1999/xlink" viewBox="0 0 488.935 488.935" xml:space="preserve">

<g id="SVGRepo_bgCarrier" stroke-width="0"/>

<g id="SVGRepo_tracerCarrier" stroke-linecap="round" stroke-linejoin="round"/>

<g id="SVGRepo_iconCarrier"> <g> <path d="M226.211,302.714c-0.044-0.033-0.089-0.066-0.134-0.1l-38.227-27.612l7.726-22.995l31.589,32.214 c3.504,3.574,8.191,5.543,13.197,5.543c4.868,0,9.463-1.877,12.939-5.285c3.525-3.457,5.494-8.079,5.543-13.016 c0.049-4.938-1.828-9.599-5.285-13.124l-31.643-32.27c0,0,2.829-64.672,2.492-65.473c-0.634-9.197-6.681-17.566-15.95-20.681 l-27.101-9.105c-2.419-0.813-4.932-1.226-7.469-1.226c-2.244,0-5.582,0.108-8.642,1.448l-75.918,34.16 c-0.107,0.049-0.214,0.1-0.318,0.154c-5.401,2.824-8.976,7.773-10.266,13.29c-0.026,0.097-0.071,0.185-0.093,0.282l-12.594,55.839 c-2.448,10.843,4.378,21.657,15.248,24.114l0.545,0.12c1.464,0.331,2.962,0.498,4.453,0.498c0.001,0,0.001,0,0.001,0 c9.479,0,17.559-6.466,19.648-15.724l10.352-45.918l20.914-9.412l-45.233,128.07l-73.051,12.238 C7.451,329.949-0.984,340.21,0.093,351.718l0.059,0.645c1.023,10.925,10.062,19.164,21.027,19.164c0.66,0,1.329-0.032,1.988-0.094 c0.145-0.014,0.289-0.032,0.432-0.056l88.555-14.838c0.755-0.127,1.49-0.308,2.357-0.659c5.597-1.728,10.087-5.839,12.654-11.275 c0.082-0.174,0.155-0.351,0.22-0.53l16.732-46.488l45.945,32.146l-6.995,67.526c-0.61,5.612,1.001,11.127,4.538,15.527 c3.538,4.401,8.578,7.16,14.176,7.768l0.638,0.07c0.763,0.083,1.538,0.125,2.302,0.125c10.798,0,19.822-8.105,20.994-18.885 l7.916-76.424C234.427,317.319,235.968,310.068,226.211,302.714z"/> <path d="M487.422,395.862l-24.437-27.522c-1.089-1.227-2.632-1.954-4.271-2.013l-24.578-0.883l7.692-35.418 c1.655,0.222,3.322,0.343,4.999,0.343c14.338,0,27.462-8.381,34.248-21.871c0.754-1.498,0.846-3.244,0.254-4.814 c-0.592-1.569-1.813-2.819-3.369-3.447l-19.988-8.063c-1.51-6.524-6.424-11.762-12.761-13.731l-1.035-11.937 c-0.206-2.377-1.801-4.405-4.061-5.167c-2.261-0.763-4.758-0.112-6.361,1.655l-3.758,4.145l-2.643-9.25 c-0.715-2.502-2.96-4.258-5.561-4.348c-2.609-0.129-4.963,1.505-5.85,3.951l-23.464,64.734 c-8.596-0.431-24.917-5.183-35.236-32.836c-11.318-30.331-32.418-44.085-48.126-50.282c-16.956-6.689-31.237-6.204-31.836-6.179 c-3.311,0.133-5.888,2.924-5.755,6.235c0.132,3.31,2.92,5.866,6.235,5.755c0.497-0.023,49.559-1.394,68.239,48.666 c3.822,10.241,10.361,22.721,21.142,31.167l-60.307,4.373c-13.113,1.091-26.044-4.206-34.578-14.179 c-2.154-2.517-5.942-2.813-8.46-0.657c-2.517,2.154-2.812,5.942-0.657,8.46c8.38,9.792,20.035,16.086,32.553,17.938 c-3.836,3.319-6.984,6.896-9.433,10.095l-21.299-3.64c-1.636-0.281-3.311,0.13-4.632,1.13l-25.67,19.429 c-1.276,0.966-2.114,2.402-2.326,3.988c-0.212,1.587,0.218,3.192,1.195,4.46l5.256,6.815c1.986,2.575,5.664,3.1,8.291,1.181 l17.017-12.433l18.292,9.239l-15.67,7.177c-1.605,0.734-2.805,2.14-3.28,3.84l-8.956,32.028c-0.783,2.799,0.554,5.758,3.173,7.02 l7.061,3.404c0.823,0.397,1.714,0.596,2.606,0.596c0.838,0,1.678-0.176,2.461-0.527c1.616-0.728,2.828-2.131,3.311-3.835 l5.715-20.149l47.011-9.268c0.107-0.022,0.214-0.045,0.321-0.072c12.553-3.198,19.766-11.348,23.897-19.142 c15.901,3.878,38.316,9.03,55.464,11.72c0.772,0.121,1.513,0.217,2.238,0.299l26.341,46.896c1.089,1.938,3.116,3.063,5.233,3.063 c0.7,0,1.411-0.123,2.1-0.381l6.875-2.57c1.491-0.558,2.699-1.684,3.359-3.132c0.66-1.448,0.717-3.099,0.16-4.59l-15.729-42.065 l13.766-1.706l25.587,20.05c1.062,0.832,2.366,1.277,3.701,1.277c0.258,0,0.517-0.017,0.775-0.051 c1.596-0.207,3.042-1.048,4.012-2.333l3.807-5.039C489.446,401.18,489.32,397.999,487.422,395.862z"/> <path d="M231.655,134.843c24.788,0,44.955-20.166,44.955-44.954s-20.167-44.954-44.955-44.954 c-24.787,0-44.953,20.166-44.953,44.954S206.867,134.843,231.655,134.843z"/> </g> </g>

</svg>