<svg width="612" height="628" viewBox="0 0 612 628" fill="none" xmlns="http://www.w3.org/2000/svg">
<path d="M362.4 255.119C322.713 254.232 285.786 273.36 263.624 306.291C241.462 339.221 237.646 380.633 253.413 417.063L291.402 504.852C297.703 519.417 308.303 531.314 322.045 539.253C335.79 547.194 351.389 550.429 367.163 548.615C382.932 546.789 397.386 540.08 408.962 529.215C420.539 518.35 428.143 504.344 430.959 488.717L431.144 487.668C438.493 448.526 461.95 413.932 495.63 392.623C504.317 387.125 511.619 380.021 517.237 371.674C520.291 367.136 522.848 362.224 524.862 357.007C530.571 342.193 531.344 326.278 527.097 310.976C522.849 295.683 513.978 282.445 501.445 272.697C488.911 262.949 473.901 257.611 458.03 257.253L362.4 255.119Z" fill="#094067" fill-opacity="0.02"/>
<path d="M232.267 448.289C235.948 432.255 232.195 415.666 221.698 401.579C211.711 388.172 196.685 378.607 179.385 374.648C162.092 370.698 144.404 372.779 129.577 380.505C114.004 388.624 103.406 401.925 99.7485 417.944C92.3655 450.155 116.085 483.18 152.641 491.57C181.759 498.215 210.344 487.247 224.489 466.228C228.101 460.862 230.771 454.839 232.267 448.289Z" fill="#094067" fill-opacity="0.02"/>
<path d="M235.849 329.96C257.378 297.97 245.242 251.988 208.795 227.459C172.339 202.924 125.165 208.991 103.635 240.982C82.1081 272.969 94.2522 318.952 130.708 343.487C167.156 368.016 214.321 361.948 235.849 329.96Z" fill="#094067" fill-opacity="0.02"/>
<path d="M319.52 240.693L319.522 240.69C324.467 236.868 328.626 232.373 331.99 227.374C347.691 204.044 346.012 169.88 325.754 143.642C314.095 128.536 297.99 118.175 280.41 114.469C262.007 110.587 244.209 114.366 230.291 125.113C216.371 135.863 208.214 152.129 207.313 170.914C206.453 188.86 212.405 207.059 224.069 222.159C248.67 254.018 291.489 262.332 319.52 240.693Z" fill="#094067" fill-opacity="0.02"/>
<path d="M394.031 113.33L394.015 113.333C362.872 124.427 347.731 162.174 360.268 197.49C372.829 232.795 408.383 252.524 439.516 241.471C450.874 237.443 460.107 229.865 466.645 220.15C478.041 203.217 481.254 179.785 473.287 157.313C460.723 122.01 425.172 102.278 394.031 113.33Z" fill="#094067" fill-opacity="0.02"/>
</svg>
